# xmcd
#
# Track frame offsets:
#	150
#	14970
#	31358
#	45808
#	63029
#	76882
#	91213
#	105919
#	118523
#	134498
#	146723
#	161198
#
# Disc length: 2366
#
# Revision: 1
# Processed by: cddbd v1.5.2PL0 Copyright (c) Steve Scherf et al.
# Submitted via: kJams Pro (development) 1.0patch51.39
#
DISCID=96093c0c
DTITLE=Country songs - BS5117
DYEAR=2008
DGENRE=Country
TTITLE0=Oak Ridge Boys, The - Elvira
TTITLE1=Brooks and Dunn - That Ain't No Way To Go
TTITLE2=Gill, Vince - One More Last Chance
TTITLE3=Restless Heart - Hometown Boy
TTITLE4=Shaw, Victoria - Cry Wolf
TTITLE5=Trevino, Rick - Save This One For Me
TTITLE6=Travis, Randy - I Won't Need You Anymore
TTITLE7=Parnell, Lee Roy - Little Bit Of You, A
TTITLE8=Tractors, The - Baby Likes To Rock It
TTITLE9=Brooks, Garth - Calling Baton Rouge
TTITLE10=George Ducas - Teardrops
TTITLE11=Sawyer Brown - Hard To Say
EXTD=Label=Backstage
EXTT0=
EXTT1=
EXTT2=
EXTT3=
EXTT4=
EXTT5=
EXTT6=
EXTT7=
EXTT8=
EXTT9=
EXTT10=
EXTT11=
PLAYORDER=
